<svg xmlns="http://www.w3.org/2000/svg" viewBox="0 0 791 775.84"><defs><style>.cls-1,.cls-4,.cls-5,.cls-6,.cls-7{fill:#fff;}.cls-2{fill:#797979;}.cls-3{stroke:#000;stroke-miterlimit:10;stroke-width:3px;}.cls-4{font-size:85.33px;}.cls-4,.cls-5,.cls-6,.cls-7,.cls-8{font-family:ContrailOne-Regular, Contrail One;}.cls-5{font-size:78.22px;}.cls-6{font-size:85.12px;}.cls-7{font-size:67.36px;}.cls-8{font-size:108.88px;}</style></defs><title>Asset 2</title><g id="Layer_2" data-name="Layer 2"><g id="Layer_1-2" data-name="Layer 1"><rect class="cls-1" x="1.5" y="130.19" width="788" height="644.15" rx="49.74"/><path d="M739.76,131.69A48.29,48.29,0,0,1,788,179.93V724.6a48.29,48.29,0,0,1-48.24,48.24H51.24A48.29,48.29,0,0,1,3,724.6V179.93a48.29,48.29,0,0,1,48.24-48.24H739.76m0-3H51.24A51.24,51.24,0,0,0,0,179.93V724.6a51.24,51.24,0,0,0,51.24,51.24H739.76A51.24,51.24,0,0,0,791,724.6V179.93a51.24,51.24,0,0,0-51.24-51.24Z"/><rect class="cls-2" x="50.68" y="166.93" width="683.71" height="97.32" rx="10.5"/><path d="M723.89,168.43a9,9,0,0,1,9,9v76.32a9,9,0,0,1-9,9H61.18a9,9,0,0,1-9-9V177.43a9,9,0,0,1,9-9H723.89m0-3H61.18a12,12,0,0,0-12,12v76.32a12,12,0,0,0,12,12H723.89a12,12,0,0,0,12-12V177.43a12,12,0,0,0-12-12Z"/><rect class="cls-2" x="50.68" y="325.19" width="683.71" height="97.32" rx="10.5"/><path d="M723.89,326.69a9,9,0,0,1,9,9V412a9,9,0,0,1-9,9H61.18a9,9,0,0,1-9-9V335.69a9,9,0,0,1,9-9H723.89m0-3H61.18a12,12,0,0,0-12,12V412a12,12,0,0,0,12,12H723.89a12,12,0,0,0,12-12V335.69a12,12,0,0,0-12-12Z"/><rect class="cls-2" x="50.68" y="483.44" width="683.71" height="97.32" rx="10.5"/><path d="M723.89,484.94a9,9,0,0,1,9,9v76.32a9,9,0,0,1-9,9H61.18a9,9,0,0,1-9-9V493.94a9,9,0,0,1,9-9H723.89m0-3H61.18a12,12,0,0,0-12,12v76.32a12,12,0,0,0,12,12H723.89a12,12,0,0,0,12-12V493.94a12,12,0,0,0-12-12Z"/><rect class="cls-2" x="50.68" y="641.69" width="683.71" height="97.32" rx="10.5"/><path d="M723.89,643.19a9,9,0,0,1,9,9v76.33a9,9,0,0,1-9,9H61.18a9,9,0,0,1-9-9V652.19a9,9,0,0,1,9-9H723.89m0-3H61.18a12,12,0,0,0-12,12v76.33a12,12,0,0,0,12,12H723.89a12,12,0,0,0,12-12V652.19a12,12,0,0,0-12-12Z"/><rect class="cls-3" x="244.35" y="169.31" width="488.89" height="94.12" rx="12"/><rect class="cls-3" x="198.25" y="328.63" width="534.11" height="90.43" rx="12.85"/><rect class="cls-3" x="364.99" y="485.47" width="370.2" height="94.67" rx="12"/><rect class="cls-3" x="286.69" y="644.97" width="447.92" height="90.43" rx="12.04"/><text class="cls-4" transform="translate(538.84 247.15)">KODE</text><text class="cls-5" transform="translate(538.7 403.2)">VIDEO</text><text class="cls-6" transform="translate(538.91 568.11) scale(0.98 1)">FOTO</text><text class="cls-7" transform="translate(320 715.73)">ILLUSTRATIONER</text><text class="cls-8" transform="translate(286.37 83.68)">SKILLS</text><text/></g></g></svg>