<svg xmlns="http://www.w3.org/2000/svg" viewBox="0 0 791 647.15"><defs><style>.cls-1{fill:#fff;}.cls-2{fill:#797979;}.cls-3{stroke:#000;stroke-miterlimit:10;stroke-width:3px;}</style></defs><title>Asset 1</title><g id="Layer_2" data-name="Layer 2"><g id="Layer_1-2" data-name="Layer 1"><rect class="cls-1" x="1.5" y="1.5" width="788" height="644.15" rx="49.74"/><path d="M739.76,3A48.29,48.29,0,0,1,788,51.24V595.91a48.29,48.29,0,0,1-48.24,48.24H51.24A48.29,48.29,0,0,1,3,595.91V51.24A48.29,48.29,0,0,1,51.24,3H739.76m0-3H51.24A51.24,51.24,0,0,0,0,51.24V595.91a51.24,51.24,0,0,0,51.24,51.24H739.76A51.24,51.24,0,0,0,791,595.91V51.24A51.24,51.24,0,0,0,739.76,0Z"/><rect class="cls-2" x="50.68" y="38.24" width="683.71" height="97.32" rx="10.5"/><path d="M723.89,39.74a9,9,0,0,1,9,9v76.32a9,9,0,0,1-9,9H61.18a9,9,0,0,1-9-9V48.74a9,9,0,0,1,9-9H723.89m0-3H61.18a12,12,0,0,0-12,12v76.32a12,12,0,0,0,12,12H723.89a12,12,0,0,0,12-12V48.74a12,12,0,0,0-12-12Z"/><rect class="cls-2" x="50.68" y="196.49" width="683.71" height="97.32" rx="10.5"/><path d="M723.89,198a9,9,0,0,1,9,9v76.32a9,9,0,0,1-9,9H61.18a9,9,0,0,1-9-9V207a9,9,0,0,1,9-9H723.89m0-3H61.18a12,12,0,0,0-12,12v76.32a12,12,0,0,0,12,12H723.89a12,12,0,0,0,12-12V207a12,12,0,0,0-12-12Z"/><rect class="cls-2" x="50.68" y="354.75" width="683.71" height="97.32" rx="10.5"/><path d="M723.89,356.25a9,9,0,0,1,9,9v76.32a9,9,0,0,1-9,9H61.18a9,9,0,0,1-9-9V365.25a9,9,0,0,1,9-9H723.89m0-3H61.18a12,12,0,0,0-12,12v76.32a12,12,0,0,0,12,12H723.89a12,12,0,0,0,12-12V365.25a12,12,0,0,0-12-12Z"/><rect class="cls-2" x="50.68" y="513" width="683.71" height="97.32" rx="10.5"/><path d="M723.89,514.5a9,9,0,0,1,9,9v76.32a9,9,0,0,1-9,9H61.18a9,9,0,0,1-9-9V523.5a9,9,0,0,1,9-9H723.89m0-3H61.18a12,12,0,0,0-12,12v76.32a12,12,0,0,0,12,12H723.89a12,12,0,0,0,12-12V523.5a12,12,0,0,0-12-12Z"/><rect class="cls-3" x="244.35" y="40.61" width="488.89" height="94.12" rx="12"/><rect class="cls-3" x="198.25" y="199.94" width="534.11" height="90.43" rx="12.85"/><rect class="cls-3" x="364.99" y="356.78" width="370.2" height="94.67" rx="12"/><rect class="cls-3" x="286.69" y="516.27" width="447.92" height="90.43" rx="12.04"/></g></g></svg>
